<svg xmlns="http://www.w3.org/2000/svg" width="1000.3997" height="1000.3998" viewBox="-50 -30 100.0399 100.03999">
  <path d="M.01997 70.02c-27.61426 0-50-22.38576-50-50.00002 0-27.6142 22.38574-49.99998 50-49.99998 27.6142 0 49.99997 22.38577 49.99997 49.99998 0 27.61426-22.38576 50-49.99997 50z" fill="#ce252c"/>
  <path d="M.01996 58.3535c-21.17102 0-38.3335-17.1625-38.3335-38.3335S-21.15107-18.3135.01996-18.3135c21.17096 0 38.33347 17.1625 38.33347 38.3335S21.19093 58.3535.01996 58.3535z" fill="#ffd100"/>
  <path d="M17.85796-3.30525c-2.83842 0-5.5896.9694-7.80007 2.75002C7.5366 1.4668 5.522 4.05003 4.1703 6.98547c-1.706 4.1349-2.5879 8.56182-2.5938 13.0345.0059 4.47297.8878 8.90272 2.59376 13.03762 1.35174 2.9351 3.36634 5.5155 5.88755 7.5375 2.2105 1.7806 4.9617 2.75 7.8001 2.75 2.83846 0 5.5896-.9694 7.8001-2.75007 2.5212-2.022 4.5358-4.60244 5.88756-7.53757 1.706-4.1349 2.58788-8.56466 2.59378-13.03763-.0059-4.47266-.8878-8.8996-2.59377-13.0345C30.1938 4.05 28.1792 1.4668 25.658-.55527c-2.21048-1.7806-4.96165-2.75-7.80008-2.75zm0 7.7782c1.0657 0 2.0963.36497 2.92503 1.03438 1.544 1.2371 2.7871 2.8095 3.6344 4.59692 1.2776 3.15063 1.9378 6.51666 1.9437 9.91572-.0059 3.40023-.6661 6.7682-1.9438 9.91884-.8473 1.7875-2.0904 3.357-3.6344 4.5938-.82878.6697-1.85937 1.0375-2.92507 1.0375s-2.09628-.3678-2.92503-1.0375c-1.544-1.2368-2.78714-2.8063-3.6344-4.5938-1.27766-3.1506-1.9379-6.5186-1.94377-9.9188.0059-3.399.6661-6.7651 1.94375-9.9157.84727-1.7874 2.0904-3.3598 3.6344-4.5969.82876-.6694 1.85935-1.0344 2.92504-1.0344zm-38.09326.00475h15.74247v-7.77762h-22.55573l-2.98832 22.50145 7.77476 3.59687c1.07485-2.12255 3.2877-3.4249 5.66544-3.33405 2.37773.09113 4.48472 1.5584 5.39458 3.7574 1.18564 2.8619 1.13214 6.08745-.147 8.9088-1.09154 2.2428-3.4381 3.59512-5.9258 3.4155-2.48738-.17962-4.61546-1.85504-5.37337-4.2313l-7.4512 2.2325c1.68378 5.46573 6.5483 9.33836 12.2522 9.75552 5.70414.41687 11.0802-2.70787 13.54083-7.8705 2.20693-4.80073 2.31218-10.30435.29046-15.18593-2.79548-6.75395-10.35318-10.17826-17.27407-7.827l1.05476-7.94164z" opacity=".99"/>
</svg>
